<svg id="Capa_1" data-name="Capa 1" xmlns="http://www.w3.org/2000/svg" viewBox="0 0 591 379"><defs><style>.cls-1{font-size:75.38px;font-family:Roboto-Medium, Roboto;font-weight:500;}.cls-2{letter-spacing:-0.02em;}.cls-3{letter-spacing:0em;}.cls-4{fill:none;stroke:#000;stroke-miterlimit:10;stroke-width:8px;}</style></defs><title>e-wok</title><path d="M418.07,61.89H401.32V56.18a4.92,4.92,0,0,0-3.54-4.92,138.61,138.61,0,0,0-35.51-4.53c-19.69,0-46.53,4.43-66.38,24.62C276.19,51,249.16,46.73,229.51,46.73A138.61,138.61,0,0,0,194,51.26a4.92,4.92,0,0,0-3.54,4.92v5.66h-16.6a4.93,4.93,0,0,0-4.92,4.93V224.06a4.91,4.91,0,0,0,7.34,4.28c.49-.25,49.73-27.18,118.48-9.85h1.18a4.66,4.66,0,0,0,1.18,0c68.94-17.48,118.19,9.41,118.49,9.85a4.92,4.92,0,0,0,7.38-4.23V66.82A4.93,4.93,0,0,0,418.07,61.89ZM178.79,216.23V71.74h11.77V195.25a4.92,4.92,0,0,0,4.86,5,5.29,5.29,0,0,0,.8-.06A215.76,215.76,0,0,1,227,197.71a127.72,127.72,0,0,1,42.05,6.35A181.08,181.08,0,0,0,178.79,216.23ZM227,187.91a218,218,0,0,0-26.79,1.72V60.07a135.33,135.33,0,0,1,29.2-3.25c18.42,0,43.83,4.24,61.46,24.13L291,203.62C280.77,196.92,260.78,187.91,227,187.91ZM300.86,81c17.63-19.7,43-24.13,61.46-24.13a136.53,136.53,0,0,1,29.2,3.25V189.63a217.61,217.61,0,0,0-26.64-1.77c-33.58,0-53.62,9-64,15.71ZM413.09,216.23a181.06,181.06,0,0,0-90.46-12.17,128.11,128.11,0,0,1,42.25-6.35,215.71,215.71,0,0,1,31,2.41,4.93,4.93,0,0,0,5.61-4.13,5.24,5.24,0,0,0,0-.79V71.74h11.77Z"/><text class="cls-1" transform="translate(169 329.9)">e - <tspan class="cls-2" x="102.73" y="0">W</tspan><tspan class="cls-3" x="167.91" y="0">oK</tspan></text><rect class="cls-4" x="11" y="11" width="570" height="355"/></svg>